<mxfile host="app.diagrams.net" modified="2024-05-15T06:34:30.677Z" agent="Mozilla/5.0 (Windows NT 10.0; Win64; x64) AppleWebKit/537.36 (KHTML, like Gecko) Chrome/124.0.0.0 Safari/537.36" etag="OMSRt-zuSPrbrMlk_NTd" version="24.3.1" type="github">
  <diagram id="C5RBs43oDa-KdzZeNtuy" name="Page-1">
    <mxGraphModel dx="2927" dy="2229" grid="1" gridSize="10" guides="1" tooltips="1" connect="1" arrows="1" fold="1" page="1" pageScale="1" pageWidth="827" pageHeight="1169" math="0" shadow="0">
      <root>
        <mxCell id="WIyWlLk6GJQsqaUBKTNV-0" />
        <mxCell id="WIyWlLk6GJQsqaUBKTNV-1" parent="WIyWlLk6GJQsqaUBKTNV-0" />
        <mxCell id="7ep9vFEOVt5mYBO7xxbo-0" value="Pool" style="swimlane;childLayout=stackLayout;resizeParent=1;resizeParentMax=0;startSize=20;html=1;fillColor=#f5f5f5;fontColor=#333333;strokeColor=#666666;" vertex="1" parent="WIyWlLk6GJQsqaUBKTNV-1">
          <mxGeometry x="-80" y="-40" width="1600" height="1930" as="geometry" />
        </mxCell>
        <mxCell id="7ep9vFEOVt5mYBO7xxbo-1" value="CRM-M" style="swimlane;startSize=20;html=1;" vertex="1" parent="7ep9vFEOVt5mYBO7xxbo-0">
          <mxGeometry y="20" width="120" height="1910" as="geometry" />
        </mxCell>
        <mxCell id="7ep9vFEOVt5mYBO7xxbo-2" style="edgeStyle=orthogonalEdgeStyle;rounded=0;orthogonalLoop=1;jettySize=auto;html=1;" edge="1" parent="7ep9vFEOVt5mYBO7xxbo-1" source="7ep9vFEOVt5mYBO7xxbo-3" target="7ep9vFEOVt5mYBO7xxbo-4">
          <mxGeometry relative="1" as="geometry" />
        </mxCell>
        <mxCell id="7ep9vFEOVt5mYBO7xxbo-3" value="" style="html=1;verticalLabelPosition=bottom;align=center;labelBackgroundColor=#ffffff;verticalAlign=top;strokeWidth=2;strokeColor=#0080F0;shadow=0;dashed=0;shape=mxgraph.ios7.icons.smartphone;" vertex="1" parent="7ep9vFEOVt5mYBO7xxbo-1">
          <mxGeometry x="51" y="320" width="18" height="30" as="geometry" />
        </mxCell>
        <mxCell id="7ep9vFEOVt5mYBO7xxbo-4" value="获取客户全景&lt;div&gt;卡片信息&lt;/div&gt;" style="rounded=1;whiteSpace=wrap;html=1;" vertex="1" parent="7ep9vFEOVt5mYBO7xxbo-1">
          <mxGeometry x="20" y="400" width="80" height="30" as="geometry" />
        </mxCell>
        <mxCell id="7ep9vFEOVt5mYBO7xxbo-5" value="展示客户全景卡片信息" style="rounded=1;whiteSpace=wrap;html=1;" vertex="1" parent="7ep9vFEOVt5mYBO7xxbo-1">
          <mxGeometry x="20" y="1826" width="80" height="30" as="geometry" />
        </mxCell>
        <mxCell id="7ep9vFEOVt5mYBO7xxbo-6" value="CRM-PC" style="swimlane;startSize=20;html=1;" vertex="1" parent="7ep9vFEOVt5mYBO7xxbo-0">
          <mxGeometry x="120" y="20" width="140" height="1910" as="geometry" />
        </mxCell>
        <mxCell id="7ep9vFEOVt5mYBO7xxbo-7" style="edgeStyle=orthogonalEdgeStyle;rounded=0;orthogonalLoop=1;jettySize=auto;html=1;entryX=0.5;entryY=0;entryDx=0;entryDy=0;" edge="1" parent="7ep9vFEOVt5mYBO7xxbo-6" source="7ep9vFEOVt5mYBO7xxbo-8" target="7ep9vFEOVt5mYBO7xxbo-9">
          <mxGeometry relative="1" as="geometry" />
        </mxCell>
        <mxCell id="7ep9vFEOVt5mYBO7xxbo-8" value="" style="shape=mxgraph.cisco.computers_and_peripherals.laptop;html=1;pointerEvents=1;dashed=0;fillColor=#036897;strokeColor=#ffffff;strokeWidth=2;verticalLabelPosition=bottom;verticalAlign=top;align=center;outlineConnect=0;" vertex="1" parent="7ep9vFEOVt5mYBO7xxbo-6">
          <mxGeometry x="28" y="320" width="65" height="40" as="geometry" />
        </mxCell>
        <mxCell id="7ep9vFEOVt5mYBO7xxbo-9" value="获取客户全景&lt;div&gt;卡片信息&lt;/div&gt;" style="rounded=1;whiteSpace=wrap;html=1;" vertex="1" parent="7ep9vFEOVt5mYBO7xxbo-6">
          <mxGeometry x="20" y="400" width="80" height="30" as="geometry" />
        </mxCell>
        <mxCell id="7ep9vFEOVt5mYBO7xxbo-10" value="展示客户全景卡片信息" style="rounded=1;whiteSpace=wrap;html=1;" vertex="1" parent="7ep9vFEOVt5mYBO7xxbo-6">
          <mxGeometry x="20" y="1826" width="80" height="30" as="geometry" />
        </mxCell>
        <mxCell id="7ep9vFEOVt5mYBO7xxbo-11" value="&lt;span style=&quot;color: rgb(6, 125, 23); font-family: &amp;quot;JetBrains Mono&amp;quot;, monospace; font-size: 14px; white-space-collapse: preserve; background-color: rgb(255, 255, 255);&quot;&gt;customerFullInfo&lt;/span&gt;" style="text;html=1;align=center;verticalAlign=middle;resizable=0;points=[];autosize=1;strokeColor=none;fillColor=none;" vertex="1" parent="7ep9vFEOVt5mYBO7xxbo-6">
          <mxGeometry y="430" width="140" height="30" as="geometry" />
        </mxCell>
        <mxCell id="7ep9vFEOVt5mYBO7xxbo-12" value="M-base" style="swimlane;startSize=20;html=1;" vertex="1" parent="7ep9vFEOVt5mYBO7xxbo-0">
          <mxGeometry x="260" y="20" width="120" height="1910" as="geometry" />
        </mxCell>
        <mxCell id="7ep9vFEOVt5mYBO7xxbo-13" value="接收请求" style="rounded=1;whiteSpace=wrap;html=1;" vertex="1" parent="7ep9vFEOVt5mYBO7xxbo-12">
          <mxGeometry x="20" y="460" width="80" height="30" as="geometry" />
        </mxCell>
        <mxCell id="7ep9vFEOVt5mYBO7xxbo-14" value="返回信息至前端" style="rounded=1;whiteSpace=wrap;html=1;" vertex="1" parent="7ep9vFEOVt5mYBO7xxbo-12">
          <mxGeometry x="20" y="1766" width="80" height="30" as="geometry" />
        </mxCell>
        <mxCell id="7ep9vFEOVt5mYBO7xxbo-15" value="M-Cloud" style="swimlane;startSize=20;html=1;" vertex="1" parent="7ep9vFEOVt5mYBO7xxbo-0">
          <mxGeometry x="380" y="20" width="130" height="1910" as="geometry" />
        </mxCell>
        <mxCell id="7ep9vFEOVt5mYBO7xxbo-16" value="&lt;span style=&quot;background-color: rgb(251, 251, 251);&quot;&gt;调用客户信息接口&lt;/span&gt;" style="rounded=1;whiteSpace=wrap;html=1;" vertex="1" parent="7ep9vFEOVt5mYBO7xxbo-15">
          <mxGeometry x="20" y="460" width="80" height="30" as="geometry" />
        </mxCell>
        <mxCell id="7ep9vFEOVt5mYBO7xxbo-17" value="&lt;span style=&quot;color: rgb(6, 125, 23); font-family: &amp;quot;JetBrains Mono&amp;quot;, monospace; font-size: 14px; white-space-collapse: preserve; background-color: rgb(255, 255, 255);&quot;&gt;customerFullInfo&lt;/span&gt;" style="text;html=1;align=center;verticalAlign=middle;resizable=0;points=[];autosize=1;strokeColor=none;fillColor=none;" vertex="1" parent="7ep9vFEOVt5mYBO7xxbo-15">
          <mxGeometry x="-5" y="490" width="140" height="30" as="geometry" />
        </mxCell>
        <mxCell id="7ep9vFEOVt5mYBO7xxbo-18" value="接收返回信息" style="rounded=1;whiteSpace=wrap;html=1;" vertex="1" parent="7ep9vFEOVt5mYBO7xxbo-15">
          <mxGeometry x="20" y="1766" width="80" height="30" as="geometry" />
        </mxCell>
        <mxCell id="7ep9vFEOVt5mYBO7xxbo-19" value="CRM-Customer" style="swimlane;startSize=20;html=1;" vertex="1" parent="7ep9vFEOVt5mYBO7xxbo-0">
          <mxGeometry x="510" y="20" width="290" height="1910" as="geometry" />
        </mxCell>
        <mxCell id="7ep9vFEOVt5mYBO7xxbo-20" value="更新企微好友状态&lt;div&gt;customerdetails&lt;br&gt;&lt;/div&gt;" style="rounded=1;whiteSpace=wrap;html=1;" vertex="1" parent="7ep9vFEOVt5mYBO7xxbo-19">
          <mxGeometry x="78.5" y="220" width="105" height="30" as="geometry" />
        </mxCell>
        <mxCell id="7ep9vFEOVt5mYBO7xxbo-21" style="edgeStyle=orthogonalEdgeStyle;rounded=0;orthogonalLoop=1;jettySize=auto;html=1;exitX=0.5;exitY=1;exitDx=0;exitDy=0;" edge="1" parent="7ep9vFEOVt5mYBO7xxbo-19" source="7ep9vFEOVt5mYBO7xxbo-22">
          <mxGeometry relative="1" as="geometry">
            <mxPoint x="131.80000000000018" y="520" as="targetPoint" />
          </mxGeometry>
        </mxCell>
        <mxCell id="7ep9vFEOVt5mYBO7xxbo-22" value="&lt;span style=&quot;background-color: rgb(251, 251, 251);&quot;&gt;接收请求报文&lt;/span&gt;" style="rounded=1;whiteSpace=wrap;html=1;" vertex="1" parent="7ep9vFEOVt5mYBO7xxbo-19">
          <mxGeometry x="92" y="460" width="80" height="30" as="geometry" />
        </mxCell>
        <mxCell id="7ep9vFEOVt5mYBO7xxbo-23" style="edgeStyle=orthogonalEdgeStyle;rounded=0;orthogonalLoop=1;jettySize=auto;html=1;entryX=0.5;entryY=0;entryDx=0;entryDy=0;" edge="1" parent="7ep9vFEOVt5mYBO7xxbo-19" source="7ep9vFEOVt5mYBO7xxbo-24">
          <mxGeometry relative="1" as="geometry">
            <mxPoint x="132" y="575" as="targetPoint" />
          </mxGeometry>
        </mxCell>
        <mxCell id="7ep9vFEOVt5mYBO7xxbo-24" value="&lt;span style=&quot;background-color: rgb(251, 251, 251);&quot;&gt;校验请求参数&lt;/span&gt;" style="rounded=1;whiteSpace=wrap;html=1;" vertex="1" parent="7ep9vFEOVt5mYBO7xxbo-19">
          <mxGeometry x="92" y="520" width="80" height="30" as="geometry" />
        </mxCell>
        <mxCell id="7ep9vFEOVt5mYBO7xxbo-25" value="&lt;span style=&quot;background-color: rgb(251, 251, 251);&quot;&gt;读取缓存信息&lt;/span&gt;" style="rounded=1;whiteSpace=wrap;html=1;" vertex="1" parent="7ep9vFEOVt5mYBO7xxbo-19">
          <mxGeometry x="92" y="736" width="80" height="30" as="geometry" />
        </mxCell>
        <mxCell id="7ep9vFEOVt5mYBO7xxbo-26" style="edgeStyle=orthogonalEdgeStyle;rounded=0;orthogonalLoop=1;jettySize=auto;html=1;entryX=0.5;entryY=0;entryDx=0;entryDy=0;" edge="1" parent="7ep9vFEOVt5mYBO7xxbo-19" source="7ep9vFEOVt5mYBO7xxbo-27" target="7ep9vFEOVt5mYBO7xxbo-29">
          <mxGeometry relative="1" as="geometry" />
        </mxCell>
        <mxCell id="7ep9vFEOVt5mYBO7xxbo-27" value="查询客户信息脱敏要求" style="rounded=1;whiteSpace=wrap;html=1;" vertex="1" parent="7ep9vFEOVt5mYBO7xxbo-19">
          <mxGeometry x="92" y="786" width="80" height="30" as="geometry" />
        </mxCell>
        <mxCell id="7ep9vFEOVt5mYBO7xxbo-28" style="edgeStyle=orthogonalEdgeStyle;rounded=0;orthogonalLoop=1;jettySize=auto;html=1;exitX=0.5;exitY=1;exitDx=0;exitDy=0;entryX=0.5;entryY=0;entryDx=0;entryDy=0;" edge="1" parent="7ep9vFEOVt5mYBO7xxbo-19" source="7ep9vFEOVt5mYBO7xxbo-29" target="7ep9vFEOVt5mYBO7xxbo-31">
          <mxGeometry relative="1" as="geometry" />
        </mxCell>
        <mxCell id="7ep9vFEOVt5mYBO7xxbo-29" value="&lt;span style=&quot;background-color: rgb(251, 251, 251);&quot;&gt;获取客户信息&lt;/span&gt;&lt;div&gt;（信息脱敏处理）&lt;/div&gt;" style="rounded=1;whiteSpace=wrap;html=1;" vertex="1" parent="7ep9vFEOVt5mYBO7xxbo-19">
          <mxGeometry x="83" y="846" width="98" height="30" as="geometry" />
        </mxCell>
        <mxCell id="7ep9vFEOVt5mYBO7xxbo-30" style="edgeStyle=orthogonalEdgeStyle;rounded=0;orthogonalLoop=1;jettySize=auto;html=1;exitX=0.5;exitY=1;exitDx=0;exitDy=0;" edge="1" parent="7ep9vFEOVt5mYBO7xxbo-19" source="7ep9vFEOVt5mYBO7xxbo-31" target="7ep9vFEOVt5mYBO7xxbo-33">
          <mxGeometry relative="1" as="geometry" />
        </mxCell>
        <mxCell id="7ep9vFEOVt5mYBO7xxbo-31" value="&lt;span style=&quot;background-color: rgb(251, 251, 251);&quot;&gt;获取标签&lt;/span&gt;" style="rounded=1;whiteSpace=wrap;html=1;" vertex="1" parent="7ep9vFEOVt5mYBO7xxbo-19">
          <mxGeometry x="92" y="906" width="80" height="30" as="geometry" />
        </mxCell>
        <mxCell id="7ep9vFEOVt5mYBO7xxbo-32" style="edgeStyle=orthogonalEdgeStyle;rounded=0;orthogonalLoop=1;jettySize=auto;html=1;entryX=0.5;entryY=0;entryDx=0;entryDy=0;" edge="1" parent="7ep9vFEOVt5mYBO7xxbo-19" source="7ep9vFEOVt5mYBO7xxbo-33" target="7ep9vFEOVt5mYBO7xxbo-35">
          <mxGeometry relative="1" as="geometry" />
        </mxCell>
        <mxCell id="7ep9vFEOVt5mYBO7xxbo-33" value="&lt;span style=&quot;background-color: rgb(251, 251, 251);&quot;&gt;获取画像&lt;/span&gt;" style="rounded=1;whiteSpace=wrap;html=1;" vertex="1" parent="7ep9vFEOVt5mYBO7xxbo-19">
          <mxGeometry x="92" y="966" width="80" height="30" as="geometry" />
        </mxCell>
        <mxCell id="7ep9vFEOVt5mYBO7xxbo-34" style="edgeStyle=orthogonalEdgeStyle;rounded=0;orthogonalLoop=1;jettySize=auto;html=1;entryX=0.5;entryY=0;entryDx=0;entryDy=0;" edge="1" parent="7ep9vFEOVt5mYBO7xxbo-19" source="7ep9vFEOVt5mYBO7xxbo-35" target="7ep9vFEOVt5mYBO7xxbo-37">
          <mxGeometry relative="1" as="geometry" />
        </mxCell>
        <mxCell id="7ep9vFEOVt5mYBO7xxbo-35" value="获取积分" style="rounded=1;whiteSpace=wrap;html=1;" vertex="1" parent="7ep9vFEOVt5mYBO7xxbo-19">
          <mxGeometry x="92" y="1026" width="80" height="30" as="geometry" />
        </mxCell>
        <mxCell id="7ep9vFEOVt5mYBO7xxbo-36" style="edgeStyle=orthogonalEdgeStyle;rounded=0;orthogonalLoop=1;jettySize=auto;html=1;exitX=0.5;exitY=1;exitDx=0;exitDy=0;entryX=0.5;entryY=0;entryDx=0;entryDy=0;" edge="1" parent="7ep9vFEOVt5mYBO7xxbo-19" source="7ep9vFEOVt5mYBO7xxbo-37" target="7ep9vFEOVt5mYBO7xxbo-44">
          <mxGeometry relative="1" as="geometry" />
        </mxCell>
        <mxCell id="7ep9vFEOVt5mYBO7xxbo-37" value="&lt;span style=&quot;background-color: rgb(251, 251, 251);&quot;&gt;获取异议客户&lt;/span&gt;" style="rounded=1;whiteSpace=wrap;html=1;" vertex="1" parent="7ep9vFEOVt5mYBO7xxbo-19">
          <mxGeometry x="92" y="1086" width="80" height="30" as="geometry" />
        </mxCell>
        <mxCell id="7ep9vFEOVt5mYBO7xxbo-38" value="" style="edgeStyle=orthogonalEdgeStyle;rounded=0;orthogonalLoop=1;jettySize=auto;html=1;exitX=0.5;exitY=1;exitDx=0;exitDy=0;exitPerimeter=0;" edge="1" parent="7ep9vFEOVt5mYBO7xxbo-19" source="7ep9vFEOVt5mYBO7xxbo-58">
          <mxGeometry relative="1" as="geometry">
            <mxPoint x="132" y="736" as="targetPoint" />
            <mxPoint x="131.99999999999955" y="716.0000000000005" as="sourcePoint" />
          </mxGeometry>
        </mxCell>
        <mxCell id="7ep9vFEOVt5mYBO7xxbo-39" value="否" style="edgeLabel;html=1;align=center;verticalAlign=middle;resizable=0;points=[];" vertex="1" connectable="0" parent="7ep9vFEOVt5mYBO7xxbo-38">
          <mxGeometry x="-0.2442" y="4" relative="1" as="geometry">
            <mxPoint x="-4" y="2" as="offset" />
          </mxGeometry>
        </mxCell>
        <mxCell id="7ep9vFEOVt5mYBO7xxbo-40" style="edgeStyle=orthogonalEdgeStyle;rounded=0;orthogonalLoop=1;jettySize=auto;html=1;entryX=1;entryY=0.5;entryDx=0;entryDy=0;exitX=1;exitY=0.5;exitDx=0;exitDy=0;exitPerimeter=0;" edge="1" parent="7ep9vFEOVt5mYBO7xxbo-19" source="7ep9vFEOVt5mYBO7xxbo-42" target="7ep9vFEOVt5mYBO7xxbo-27">
          <mxGeometry relative="1" as="geometry">
            <Array as="points">
              <mxPoint x="210" y="595" />
              <mxPoint x="210" y="801" />
            </Array>
          </mxGeometry>
        </mxCell>
        <mxCell id="7ep9vFEOVt5mYBO7xxbo-41" value="否" style="edgeLabel;html=1;align=center;verticalAlign=middle;resizable=0;points=[];" vertex="1" connectable="0" parent="7ep9vFEOVt5mYBO7xxbo-40">
          <mxGeometry x="-0.1579" y="-2" relative="1" as="geometry">
            <mxPoint x="-8" y="-86" as="offset" />
          </mxGeometry>
        </mxCell>
        <mxCell id="7ep9vFEOVt5mYBO7xxbo-42" value="是否&lt;div&gt;存在缓存&lt;/div&gt;" style="strokeWidth=2;html=1;shape=mxgraph.flowchart.decision;whiteSpace=wrap;" vertex="1" parent="7ep9vFEOVt5mYBO7xxbo-19">
          <mxGeometry x="82" y="570" width="100" height="50" as="geometry" />
        </mxCell>
        <mxCell id="7ep9vFEOVt5mYBO7xxbo-43" style="edgeStyle=orthogonalEdgeStyle;rounded=0;orthogonalLoop=1;jettySize=auto;html=1;entryX=0.5;entryY=0;entryDx=0;entryDy=0;" edge="1" parent="7ep9vFEOVt5mYBO7xxbo-19" source="7ep9vFEOVt5mYBO7xxbo-44" target="7ep9vFEOVt5mYBO7xxbo-46">
          <mxGeometry relative="1" as="geometry" />
        </mxCell>
        <mxCell id="7ep9vFEOVt5mYBO7xxbo-44" value="&lt;span style=&quot;background-color: rgb(251, 251, 251);&quot;&gt;获取关系图谱&lt;/span&gt;" style="rounded=1;whiteSpace=wrap;html=1;" vertex="1" parent="7ep9vFEOVt5mYBO7xxbo-19">
          <mxGeometry x="92" y="1146" width="80" height="30" as="geometry" />
        </mxCell>
        <mxCell id="7ep9vFEOVt5mYBO7xxbo-45" style="edgeStyle=orthogonalEdgeStyle;rounded=0;orthogonalLoop=1;jettySize=auto;html=1;exitX=0.5;exitY=1;exitDx=0;exitDy=0;entryX=0.5;entryY=0;entryDx=0;entryDy=0;" edge="1" parent="7ep9vFEOVt5mYBO7xxbo-19" source="7ep9vFEOVt5mYBO7xxbo-46" target="7ep9vFEOVt5mYBO7xxbo-52">
          <mxGeometry relative="1" as="geometry">
            <mxPoint x="132.0322580645161" y="1256" as="targetPoint" />
          </mxGeometry>
        </mxCell>
        <mxCell id="7ep9vFEOVt5mYBO7xxbo-46" value="&lt;span style=&quot;background-color: rgb(251, 251, 251);&quot;&gt;获取线上账户和服务账户&lt;/span&gt;&lt;div&gt;&lt;div style=&quot;background-color:#ffffff;color:#080808;font-family:&#39;JetBrains Mono&#39;,monospace;font-size:10.5pt;white-space:pre;&quot;&gt;&lt;span style=&quot;background-color:#edfced;&quot;&gt;customerdetails,&lt;/span&gt;&lt;span style=&quot;background-color: rgb(237, 252, 237); font-size: 10.5pt;&quot;&gt;tkhxx&lt;/span&gt;&lt;/div&gt;&lt;/div&gt;" style="rounded=1;whiteSpace=wrap;html=1;fontColor=#FF3D0D;" vertex="1" parent="7ep9vFEOVt5mYBO7xxbo-19">
          <mxGeometry x="47" y="1206" width="170" height="50" as="geometry" />
        </mxCell>
        <mxCell id="7ep9vFEOVt5mYBO7xxbo-47" style="edgeStyle=orthogonalEdgeStyle;rounded=0;orthogonalLoop=1;jettySize=auto;html=1;entryX=0.5;entryY=0;entryDx=0;entryDy=0;" edge="1" parent="7ep9vFEOVt5mYBO7xxbo-19" source="7ep9vFEOVt5mYBO7xxbo-48" target="7ep9vFEOVt5mYBO7xxbo-50">
          <mxGeometry relative="1" as="geometry" />
        </mxCell>
        <mxCell id="7ep9vFEOVt5mYBO7xxbo-48" value="设置资产诊断持仓金额" style="rounded=1;whiteSpace=wrap;html=1;" vertex="1" parent="7ep9vFEOVt5mYBO7xxbo-19">
          <mxGeometry x="91" y="1630" width="80" height="30" as="geometry" />
        </mxCell>
        <mxCell id="7ep9vFEOVt5mYBO7xxbo-49" style="edgeStyle=orthogonalEdgeStyle;rounded=0;orthogonalLoop=1;jettySize=auto;html=1;" edge="1" parent="7ep9vFEOVt5mYBO7xxbo-19" source="7ep9vFEOVt5mYBO7xxbo-50" target="7ep9vFEOVt5mYBO7xxbo-51">
          <mxGeometry relative="1" as="geometry" />
        </mxCell>
        <mxCell id="7ep9vFEOVt5mYBO7xxbo-50" value="设置总持仓" style="rounded=1;whiteSpace=wrap;html=1;" vertex="1" parent="7ep9vFEOVt5mYBO7xxbo-19">
          <mxGeometry x="92" y="1676" width="80" height="30" as="geometry" />
        </mxCell>
        <mxCell id="7ep9vFEOVt5mYBO7xxbo-51" value="保存客户信息至缓存" style="rounded=1;whiteSpace=wrap;html=1;" vertex="1" parent="7ep9vFEOVt5mYBO7xxbo-19">
          <mxGeometry x="92" y="1727" width="80" height="30" as="geometry" />
        </mxCell>
        <mxCell id="7ep9vFEOVt5mYBO7xxbo-52" value="&lt;span style=&quot;background-color: rgb(251, 251, 251);&quot;&gt;获取数仓持仓&lt;/span&gt;" style="rounded=1;whiteSpace=wrap;html=1;" vertex="1" parent="7ep9vFEOVt5mYBO7xxbo-19">
          <mxGeometry x="92" y="1296" width="80" height="30" as="geometry" />
        </mxCell>
        <mxCell id="7ep9vFEOVt5mYBO7xxbo-53" value="&lt;span style=&quot;background-color: rgb(251, 251, 251);&quot;&gt;获取家庭持仓&lt;/span&gt;" style="rounded=1;whiteSpace=wrap;html=1;" vertex="1" parent="7ep9vFEOVt5mYBO7xxbo-19">
          <mxGeometry x="92" y="1375" width="80" height="30" as="geometry" />
        </mxCell>
        <mxCell id="7ep9vFEOVt5mYBO7xxbo-54" value="获取卡券信息" style="rounded=1;whiteSpace=wrap;html=1;" vertex="1" parent="7ep9vFEOVt5mYBO7xxbo-19">
          <mxGeometry x="93.5" y="1490" width="80" height="30" as="geometry" />
        </mxCell>
        <mxCell id="7ep9vFEOVt5mYBO7xxbo-55" value="获取合规信息" style="rounded=1;whiteSpace=wrap;html=1;" vertex="1" parent="7ep9vFEOVt5mYBO7xxbo-19">
          <mxGeometry x="91" y="1560" width="80" height="30" as="geometry" />
        </mxCell>
        <mxCell id="7ep9vFEOVt5mYBO7xxbo-56" style="edgeStyle=orthogonalEdgeStyle;rounded=0;orthogonalLoop=1;jettySize=auto;html=1;exitX=1;exitY=0.5;exitDx=0;exitDy=0;exitPerimeter=0;entryX=1;entryY=0.5;entryDx=0;entryDy=0;" edge="1" parent="7ep9vFEOVt5mYBO7xxbo-19" source="7ep9vFEOVt5mYBO7xxbo-58" target="7ep9vFEOVt5mYBO7xxbo-27">
          <mxGeometry relative="1" as="geometry">
            <Array as="points">
              <mxPoint x="210" y="672" />
              <mxPoint x="210" y="801" />
            </Array>
          </mxGeometry>
        </mxCell>
        <mxCell id="7ep9vFEOVt5mYBO7xxbo-57" value="是" style="edgeLabel;html=1;align=center;verticalAlign=middle;resizable=0;points=[];" vertex="1" connectable="0" parent="7ep9vFEOVt5mYBO7xxbo-56">
          <mxGeometry x="-0.8825" y="1" relative="1" as="geometry">
            <mxPoint as="offset" />
          </mxGeometry>
        </mxCell>
        <mxCell id="7ep9vFEOVt5mYBO7xxbo-58" value="脱敏要求&lt;div&gt;是否变化&lt;/div&gt;" style="strokeWidth=2;html=1;shape=mxgraph.flowchart.decision;whiteSpace=wrap;" vertex="1" parent="7ep9vFEOVt5mYBO7xxbo-19">
          <mxGeometry x="83.5" y="647" width="100" height="50" as="geometry" />
        </mxCell>
        <mxCell id="7ep9vFEOVt5mYBO7xxbo-59" style="edgeStyle=orthogonalEdgeStyle;rounded=0;orthogonalLoop=1;jettySize=auto;html=1;exitX=0.5;exitY=1;exitDx=0;exitDy=0;exitPerimeter=0;entryX=0.5;entryY=0;entryDx=0;entryDy=0;entryPerimeter=0;" edge="1" parent="7ep9vFEOVt5mYBO7xxbo-19" source="7ep9vFEOVt5mYBO7xxbo-42" target="7ep9vFEOVt5mYBO7xxbo-58">
          <mxGeometry relative="1" as="geometry" />
        </mxCell>
        <mxCell id="7ep9vFEOVt5mYBO7xxbo-60" value="是" style="edgeLabel;html=1;align=center;verticalAlign=middle;resizable=0;points=[];" vertex="1" connectable="0" parent="7ep9vFEOVt5mYBO7xxbo-59">
          <mxGeometry x="-0.2962" y="1" relative="1" as="geometry">
            <mxPoint as="offset" />
          </mxGeometry>
        </mxCell>
        <mxCell id="7ep9vFEOVt5mYBO7xxbo-61" value="&lt;span style=&quot;background-color: rgb(251, 251, 251);&quot;&gt;获取钱包持仓&lt;/span&gt;" style="rounded=1;whiteSpace=wrap;html=1;" vertex="1" parent="7ep9vFEOVt5mYBO7xxbo-19">
          <mxGeometry x="91" y="1431" width="80" height="30" as="geometry" />
        </mxCell>
        <mxCell id="7ep9vFEOVt5mYBO7xxbo-62" value="CRM-Clear" style="swimlane;startSize=20;html=1;" vertex="1" parent="7ep9vFEOVt5mYBO7xxbo-0">
          <mxGeometry x="800" y="20" width="200" height="1910" as="geometry" />
        </mxCell>
        <mxCell id="7ep9vFEOVt5mYBO7xxbo-63" value="接收广播信息" style="rounded=1;whiteSpace=wrap;html=1;" vertex="1" parent="7ep9vFEOVt5mYBO7xxbo-62">
          <mxGeometry x="69" y="170" width="80" height="30" as="geometry" />
        </mxCell>
        <mxCell id="7ep9vFEOVt5mYBO7xxbo-64" value="customerOnlineProcessor接口" style="text;html=1;align=center;verticalAlign=middle;resizable=0;points=[];autosize=1;strokeColor=none;fillColor=none;" vertex="1" parent="7ep9vFEOVt5mYBO7xxbo-62">
          <mxGeometry x="14" y="250" width="190" height="30" as="geometry" />
        </mxCell>
        <mxCell id="7ep9vFEOVt5mYBO7xxbo-65" value="调用更新接口" style="rounded=1;whiteSpace=wrap;html=1;" vertex="1" parent="7ep9vFEOVt5mYBO7xxbo-62">
          <mxGeometry x="69" y="220" width="80" height="30" as="geometry" />
        </mxCell>
        <mxCell id="7ep9vFEOVt5mYBO7xxbo-66" style="edgeStyle=orthogonalEdgeStyle;rounded=0;orthogonalLoop=1;jettySize=auto;html=1;entryX=0.5;entryY=0;entryDx=0;entryDy=0;" edge="1" parent="7ep9vFEOVt5mYBO7xxbo-62" source="7ep9vFEOVt5mYBO7xxbo-63" target="7ep9vFEOVt5mYBO7xxbo-65">
          <mxGeometry relative="1" as="geometry" />
        </mxCell>
        <mxCell id="7ep9vFEOVt5mYBO7xxbo-67" value="APP" style="swimlane;startSize=20;html=1;" vertex="1" parent="7ep9vFEOVt5mYBO7xxbo-0">
          <mxGeometry x="1000" y="20" width="120" height="1910" as="geometry" />
        </mxCell>
        <mxCell id="7ep9vFEOVt5mYBO7xxbo-68" value="获取企微好友更新信息" style="rounded=1;whiteSpace=wrap;html=1;" vertex="1" parent="7ep9vFEOVt5mYBO7xxbo-67">
          <mxGeometry x="20" y="60" width="80" height="30" as="geometry" />
        </mxCell>
        <mxCell id="7ep9vFEOVt5mYBO7xxbo-69" value="卡券信息" style="rounded=1;whiteSpace=wrap;html=1;" vertex="1" parent="7ep9vFEOVt5mYBO7xxbo-67">
          <mxGeometry x="30" y="1490" width="80" height="30" as="geometry" />
        </mxCell>
        <mxCell id="7ep9vFEOVt5mYBO7xxbo-70" value="合规接口" style="rounded=1;whiteSpace=wrap;html=1;" vertex="1" parent="7ep9vFEOVt5mYBO7xxbo-67">
          <mxGeometry x="30" y="1560" width="80" height="30" as="geometry" />
        </mxCell>
        <mxCell id="7ep9vFEOVt5mYBO7xxbo-71" value="合规信息处理" style="rounded=1;whiteSpace=wrap;html=1;" vertex="1" parent="7ep9vFEOVt5mYBO7xxbo-67">
          <mxGeometry x="20" y="1640" width="80" height="30" as="geometry" />
        </mxCell>
        <mxCell id="7ep9vFEOVt5mYBO7xxbo-72" value="ECIF" style="swimlane;startSize=20;html=1;" vertex="1" parent="7ep9vFEOVt5mYBO7xxbo-0">
          <mxGeometry x="1120" y="20" width="120" height="1910" as="geometry" />
        </mxCell>
        <mxCell id="7ep9vFEOVt5mYBO7xxbo-73" style="edgeStyle=orthogonalEdgeStyle;rounded=0;orthogonalLoop=1;jettySize=auto;html=1;entryX=0.5;entryY=0;entryDx=0;entryDy=0;" edge="1" parent="7ep9vFEOVt5mYBO7xxbo-72" source="7ep9vFEOVt5mYBO7xxbo-74" target="7ep9vFEOVt5mYBO7xxbo-75">
          <mxGeometry relative="1" as="geometry" />
        </mxCell>
        <mxCell id="7ep9vFEOVt5mYBO7xxbo-74" value="更新客户线上账户信息" style="rounded=1;whiteSpace=wrap;html=1;" vertex="1" parent="7ep9vFEOVt5mYBO7xxbo-72">
          <mxGeometry x="20" y="110" width="80" height="30" as="geometry" />
        </mxCell>
        <mxCell id="7ep9vFEOVt5mYBO7xxbo-75" value="广播客户线上账户信息" style="rounded=1;whiteSpace=wrap;html=1;" vertex="1" parent="7ep9vFEOVt5mYBO7xxbo-72">
          <mxGeometry x="20" y="170" width="80" height="30" as="geometry" />
        </mxCell>
        <mxCell id="7ep9vFEOVt5mYBO7xxbo-76" value="合规查询" style="rounded=1;whiteSpace=wrap;html=1;" vertex="1" parent="7ep9vFEOVt5mYBO7xxbo-72">
          <mxGeometry x="20" y="1605" width="80" height="30" as="geometry" />
        </mxCell>
        <mxCell id="7ep9vFEOVt5mYBO7xxbo-77" value="数仓" style="swimlane;startSize=20;html=1;" vertex="1" parent="7ep9vFEOVt5mYBO7xxbo-0">
          <mxGeometry x="1240" y="20" width="120" height="1910" as="geometry" />
        </mxCell>
        <mxCell id="7ep9vFEOVt5mYBO7xxbo-78" value="&lt;span style=&quot;background-color: rgb(251, 251, 251);&quot;&gt;当前持仓&lt;/span&gt;" style="rounded=1;whiteSpace=wrap;html=1;" vertex="1" parent="7ep9vFEOVt5mYBO7xxbo-77">
          <mxGeometry x="20" y="1296" width="80" height="30" as="geometry" />
        </mxCell>
        <mxCell id="7ep9vFEOVt5mYBO7xxbo-79" value="历史持仓" style="rounded=1;whiteSpace=wrap;html=1;" vertex="1" parent="7ep9vFEOVt5mYBO7xxbo-77">
          <mxGeometry x="20" y="1340" width="80" height="30" as="geometry" />
        </mxCell>
        <mxCell id="7ep9vFEOVt5mYBO7xxbo-80" style="edgeStyle=orthogonalEdgeStyle;rounded=0;orthogonalLoop=1;jettySize=auto;html=1;exitX=0.5;exitY=1;exitDx=0;exitDy=0;" edge="1" parent="7ep9vFEOVt5mYBO7xxbo-77">
          <mxGeometry relative="1" as="geometry">
            <mxPoint x="59.65999999999997" y="1326" as="sourcePoint" />
            <mxPoint x="60" y="1340" as="targetPoint" />
          </mxGeometry>
        </mxCell>
        <mxCell id="7ep9vFEOVt5mYBO7xxbo-81" value="钱包" style="swimlane;startSize=20;html=1;" vertex="1" parent="7ep9vFEOVt5mYBO7xxbo-0">
          <mxGeometry x="1360" y="20" width="120" height="1910" as="geometry" />
        </mxCell>
        <mxCell id="7ep9vFEOVt5mYBO7xxbo-82" value="钱包持仓" style="rounded=1;whiteSpace=wrap;html=1;" vertex="1" parent="7ep9vFEOVt5mYBO7xxbo-81">
          <mxGeometry x="20" y="1431" width="80" height="30" as="geometry" />
        </mxCell>
        <mxCell id="7ep9vFEOVt5mYBO7xxbo-83" value="家庭" style="swimlane;startSize=20;html=1;" vertex="1" parent="7ep9vFEOVt5mYBO7xxbo-0">
          <mxGeometry x="1480" y="20" width="120" height="1910" as="geometry" />
        </mxCell>
        <mxCell id="7ep9vFEOVt5mYBO7xxbo-84" value="家庭持仓" style="rounded=1;whiteSpace=wrap;html=1;" vertex="1" parent="7ep9vFEOVt5mYBO7xxbo-83">
          <mxGeometry x="20" y="1375" width="80" height="30" as="geometry" />
        </mxCell>
        <mxCell id="7ep9vFEOVt5mYBO7xxbo-85" style="edgeStyle=orthogonalEdgeStyle;rounded=0;orthogonalLoop=1;jettySize=auto;html=1;entryX=0.5;entryY=0;entryDx=0;entryDy=0;" edge="1" parent="7ep9vFEOVt5mYBO7xxbo-0" source="7ep9vFEOVt5mYBO7xxbo-68" target="7ep9vFEOVt5mYBO7xxbo-74">
          <mxGeometry relative="1" as="geometry">
            <mxPoint x="1060" y="130" as="targetPoint" />
          </mxGeometry>
        </mxCell>
        <mxCell id="7ep9vFEOVt5mYBO7xxbo-86" style="edgeStyle=orthogonalEdgeStyle;rounded=0;orthogonalLoop=1;jettySize=auto;html=1;entryX=1;entryY=0.5;entryDx=0;entryDy=0;exitX=0;exitY=0.5;exitDx=0;exitDy=0;" edge="1" parent="7ep9vFEOVt5mYBO7xxbo-0" source="7ep9vFEOVt5mYBO7xxbo-75" target="7ep9vFEOVt5mYBO7xxbo-63">
          <mxGeometry relative="1" as="geometry">
            <mxPoint x="1020" y="205" as="sourcePoint" />
          </mxGeometry>
        </mxCell>
        <mxCell id="7ep9vFEOVt5mYBO7xxbo-87" style="edgeStyle=orthogonalEdgeStyle;rounded=0;orthogonalLoop=1;jettySize=auto;html=1;exitX=0;exitY=0.5;exitDx=0;exitDy=0;" edge="1" parent="7ep9vFEOVt5mYBO7xxbo-0" source="7ep9vFEOVt5mYBO7xxbo-65" target="7ep9vFEOVt5mYBO7xxbo-20">
          <mxGeometry relative="1" as="geometry" />
        </mxCell>
        <mxCell id="7ep9vFEOVt5mYBO7xxbo-88" style="edgeStyle=orthogonalEdgeStyle;rounded=0;orthogonalLoop=1;jettySize=auto;html=1;entryX=0;entryY=0.5;entryDx=0;entryDy=0;exitX=0.5;exitY=1;exitDx=0;exitDy=0;" edge="1" parent="7ep9vFEOVt5mYBO7xxbo-0" source="7ep9vFEOVt5mYBO7xxbo-4" target="7ep9vFEOVt5mYBO7xxbo-13">
          <mxGeometry relative="1" as="geometry" />
        </mxCell>
        <mxCell id="7ep9vFEOVt5mYBO7xxbo-89" style="edgeStyle=orthogonalEdgeStyle;rounded=0;orthogonalLoop=1;jettySize=auto;html=1;entryX=0;entryY=0.5;entryDx=0;entryDy=0;" edge="1" parent="7ep9vFEOVt5mYBO7xxbo-0" source="7ep9vFEOVt5mYBO7xxbo-13" target="7ep9vFEOVt5mYBO7xxbo-16">
          <mxGeometry relative="1" as="geometry" />
        </mxCell>
        <mxCell id="7ep9vFEOVt5mYBO7xxbo-90" style="edgeStyle=orthogonalEdgeStyle;rounded=0;orthogonalLoop=1;jettySize=auto;html=1;exitX=1;exitY=0.5;exitDx=0;exitDy=0;entryX=0;entryY=0.5;entryDx=0;entryDy=0;" edge="1" parent="7ep9vFEOVt5mYBO7xxbo-0" source="7ep9vFEOVt5mYBO7xxbo-16" target="7ep9vFEOVt5mYBO7xxbo-22">
          <mxGeometry relative="1" as="geometry" />
        </mxCell>
        <mxCell id="7ep9vFEOVt5mYBO7xxbo-91" style="edgeStyle=orthogonalEdgeStyle;rounded=0;orthogonalLoop=1;jettySize=auto;html=1;" edge="1" parent="7ep9vFEOVt5mYBO7xxbo-0" source="7ep9vFEOVt5mYBO7xxbo-9" target="7ep9vFEOVt5mYBO7xxbo-22">
          <mxGeometry relative="1" as="geometry" />
        </mxCell>
        <mxCell id="7ep9vFEOVt5mYBO7xxbo-92" style="edgeStyle=orthogonalEdgeStyle;rounded=0;orthogonalLoop=1;jettySize=auto;html=1;entryX=0.5;entryY=0;entryDx=0;entryDy=0;" edge="1" parent="7ep9vFEOVt5mYBO7xxbo-0" source="7ep9vFEOVt5mYBO7xxbo-25" target="7ep9vFEOVt5mYBO7xxbo-18">
          <mxGeometry relative="1" as="geometry" />
        </mxCell>
        <mxCell id="7ep9vFEOVt5mYBO7xxbo-93" style="edgeStyle=orthogonalEdgeStyle;rounded=0;orthogonalLoop=1;jettySize=auto;html=1;entryX=1;entryY=0.5;entryDx=0;entryDy=0;" edge="1" parent="7ep9vFEOVt5mYBO7xxbo-0" source="7ep9vFEOVt5mYBO7xxbo-18" target="7ep9vFEOVt5mYBO7xxbo-14">
          <mxGeometry relative="1" as="geometry" />
        </mxCell>
        <mxCell id="7ep9vFEOVt5mYBO7xxbo-94" style="edgeStyle=orthogonalEdgeStyle;rounded=0;orthogonalLoop=1;jettySize=auto;html=1;exitX=0;exitY=0.5;exitDx=0;exitDy=0;" edge="1" parent="7ep9vFEOVt5mYBO7xxbo-0" source="7ep9vFEOVt5mYBO7xxbo-14" target="7ep9vFEOVt5mYBO7xxbo-5">
          <mxGeometry relative="1" as="geometry" />
        </mxCell>
        <mxCell id="7ep9vFEOVt5mYBO7xxbo-95" style="edgeStyle=orthogonalEdgeStyle;rounded=0;orthogonalLoop=1;jettySize=auto;html=1;entryX=1;entryY=0.5;entryDx=0;entryDy=0;exitX=0.5;exitY=1;exitDx=0;exitDy=0;" edge="1" parent="7ep9vFEOVt5mYBO7xxbo-0" source="7ep9vFEOVt5mYBO7xxbo-51" target="7ep9vFEOVt5mYBO7xxbo-18">
          <mxGeometry relative="1" as="geometry">
            <Array as="points">
              <mxPoint x="642" y="1801" />
            </Array>
          </mxGeometry>
        </mxCell>
        <mxCell id="7ep9vFEOVt5mYBO7xxbo-96" style="edgeStyle=orthogonalEdgeStyle;rounded=0;orthogonalLoop=1;jettySize=auto;html=1;entryX=1;entryY=0.5;entryDx=0;entryDy=0;exitX=0.5;exitY=1;exitDx=0;exitDy=0;" edge="1" parent="7ep9vFEOVt5mYBO7xxbo-0" source="7ep9vFEOVt5mYBO7xxbo-51" target="7ep9vFEOVt5mYBO7xxbo-10">
          <mxGeometry relative="1" as="geometry">
            <Array as="points">
              <mxPoint x="642" y="1861" />
            </Array>
          </mxGeometry>
        </mxCell>
        <mxCell id="7ep9vFEOVt5mYBO7xxbo-97" style="edgeStyle=orthogonalEdgeStyle;rounded=0;orthogonalLoop=1;jettySize=auto;html=1;entryX=0.5;entryY=0;entryDx=0;entryDy=0;" edge="1" parent="7ep9vFEOVt5mYBO7xxbo-0" source="7ep9vFEOVt5mYBO7xxbo-25" target="7ep9vFEOVt5mYBO7xxbo-10">
          <mxGeometry relative="1" as="geometry" />
        </mxCell>
        <mxCell id="7ep9vFEOVt5mYBO7xxbo-98" style="edgeStyle=orthogonalEdgeStyle;rounded=0;orthogonalLoop=1;jettySize=auto;html=1;entryX=0;entryY=0.5;entryDx=0;entryDy=0;" edge="1" parent="7ep9vFEOVt5mYBO7xxbo-0" source="7ep9vFEOVt5mYBO7xxbo-52" target="7ep9vFEOVt5mYBO7xxbo-78">
          <mxGeometry relative="1" as="geometry" />
        </mxCell>
        <mxCell id="7ep9vFEOVt5mYBO7xxbo-99" style="edgeStyle=orthogonalEdgeStyle;rounded=0;orthogonalLoop=1;jettySize=auto;html=1;entryX=0.5;entryY=0;entryDx=0;entryDy=0;" edge="1" parent="7ep9vFEOVt5mYBO7xxbo-0" source="7ep9vFEOVt5mYBO7xxbo-79" target="7ep9vFEOVt5mYBO7xxbo-53">
          <mxGeometry relative="1" as="geometry" />
        </mxCell>
        <mxCell id="7ep9vFEOVt5mYBO7xxbo-100" style="edgeStyle=orthogonalEdgeStyle;rounded=0;orthogonalLoop=1;jettySize=auto;html=1;entryX=0.5;entryY=0;entryDx=0;entryDy=0;exitX=0.5;exitY=1;exitDx=0;exitDy=0;" edge="1" parent="7ep9vFEOVt5mYBO7xxbo-0" source="7ep9vFEOVt5mYBO7xxbo-69" target="7ep9vFEOVt5mYBO7xxbo-55">
          <mxGeometry relative="1" as="geometry" />
        </mxCell>
        <mxCell id="7ep9vFEOVt5mYBO7xxbo-101" style="edgeStyle=orthogonalEdgeStyle;rounded=0;orthogonalLoop=1;jettySize=auto;html=1;exitX=1;exitY=0.5;exitDx=0;exitDy=0;entryX=0;entryY=0.5;entryDx=0;entryDy=0;" edge="1" parent="7ep9vFEOVt5mYBO7xxbo-0" source="7ep9vFEOVt5mYBO7xxbo-54" target="7ep9vFEOVt5mYBO7xxbo-69">
          <mxGeometry relative="1" as="geometry" />
        </mxCell>
        <mxCell id="7ep9vFEOVt5mYBO7xxbo-102" style="edgeStyle=orthogonalEdgeStyle;rounded=0;orthogonalLoop=1;jettySize=auto;html=1;" edge="1" parent="7ep9vFEOVt5mYBO7xxbo-0" source="7ep9vFEOVt5mYBO7xxbo-55" target="7ep9vFEOVt5mYBO7xxbo-70">
          <mxGeometry relative="1" as="geometry" />
        </mxCell>
        <mxCell id="7ep9vFEOVt5mYBO7xxbo-103" style="edgeStyle=orthogonalEdgeStyle;rounded=0;orthogonalLoop=1;jettySize=auto;html=1;" edge="1" parent="7ep9vFEOVt5mYBO7xxbo-0" source="7ep9vFEOVt5mYBO7xxbo-70" target="7ep9vFEOVt5mYBO7xxbo-76">
          <mxGeometry relative="1" as="geometry" />
        </mxCell>
        <mxCell id="7ep9vFEOVt5mYBO7xxbo-104" style="edgeStyle=orthogonalEdgeStyle;rounded=0;orthogonalLoop=1;jettySize=auto;html=1;entryX=0.5;entryY=0;entryDx=0;entryDy=0;" edge="1" parent="7ep9vFEOVt5mYBO7xxbo-0" source="7ep9vFEOVt5mYBO7xxbo-76" target="7ep9vFEOVt5mYBO7xxbo-71">
          <mxGeometry relative="1" as="geometry" />
        </mxCell>
        <mxCell id="7ep9vFEOVt5mYBO7xxbo-105" style="edgeStyle=orthogonalEdgeStyle;rounded=0;orthogonalLoop=1;jettySize=auto;html=1;exitX=0.5;exitY=1;exitDx=0;exitDy=0;" edge="1" parent="7ep9vFEOVt5mYBO7xxbo-0" source="7ep9vFEOVt5mYBO7xxbo-71" target="7ep9vFEOVt5mYBO7xxbo-48">
          <mxGeometry relative="1" as="geometry">
            <mxPoint x="642" y="1551" as="sourcePoint" />
          </mxGeometry>
        </mxCell>
        <mxCell id="7ep9vFEOVt5mYBO7xxbo-106" style="edgeStyle=orthogonalEdgeStyle;rounded=0;orthogonalLoop=1;jettySize=auto;html=1;" edge="1" parent="7ep9vFEOVt5mYBO7xxbo-0" source="7ep9vFEOVt5mYBO7xxbo-53" target="7ep9vFEOVt5mYBO7xxbo-84">
          <mxGeometry relative="1" as="geometry" />
        </mxCell>
        <mxCell id="7ep9vFEOVt5mYBO7xxbo-107" style="edgeStyle=orthogonalEdgeStyle;rounded=0;orthogonalLoop=1;jettySize=auto;html=1;exitX=0.5;exitY=1;exitDx=0;exitDy=0;entryX=0.5;entryY=0;entryDx=0;entryDy=0;" edge="1" parent="7ep9vFEOVt5mYBO7xxbo-0" source="7ep9vFEOVt5mYBO7xxbo-84" target="7ep9vFEOVt5mYBO7xxbo-61">
          <mxGeometry relative="1" as="geometry">
            <Array as="points">
              <mxPoint x="1540" y="1440" />
              <mxPoint x="642" y="1440" />
            </Array>
          </mxGeometry>
        </mxCell>
        <mxCell id="7ep9vFEOVt5mYBO7xxbo-108" style="edgeStyle=orthogonalEdgeStyle;rounded=0;orthogonalLoop=1;jettySize=auto;html=1;" edge="1" parent="7ep9vFEOVt5mYBO7xxbo-0" source="7ep9vFEOVt5mYBO7xxbo-61" target="7ep9vFEOVt5mYBO7xxbo-82">
          <mxGeometry relative="1" as="geometry" />
        </mxCell>
        <mxCell id="7ep9vFEOVt5mYBO7xxbo-109" value="" style="edgeStyle=orthogonalEdgeStyle;rounded=0;orthogonalLoop=1;jettySize=auto;html=1;exitX=0.5;exitY=1;exitDx=0;exitDy=0;entryX=0.5;entryY=0;entryDx=0;entryDy=0;" edge="1" parent="7ep9vFEOVt5mYBO7xxbo-0" source="7ep9vFEOVt5mYBO7xxbo-82" target="7ep9vFEOVt5mYBO7xxbo-54">
          <mxGeometry relative="1" as="geometry">
            <mxPoint x="2460" y="1450" as="sourcePoint" />
            <mxPoint x="1680" y="1470.03" as="targetPoint" />
            <Array as="points">
              <mxPoint x="1420" y="1490" />
              <mxPoint x="644" y="1490" />
            </Array>
          </mxGeometry>
        </mxCell>
        <mxCell id="7ep9vFEOVt5mYBO7xxbo-110" value="" style="endArrow=none;dashed=1;html=1;rounded=0;" edge="1" parent="WIyWlLk6GJQsqaUBKTNV-1">
          <mxGeometry width="50" height="50" relative="1" as="geometry">
            <mxPoint x="-80" y="280" as="sourcePoint" />
            <mxPoint x="1160" y="280" as="targetPoint" />
          </mxGeometry>
        </mxCell>
      </root>
    </mxGraphModel>
  </diagram>
</mxfile>
